<svg xmlns="http://www.w3.org/2000/svg" width="966" height="486"><path fill-rule="evenodd" d="M92.5 34.5c196.886 0 396.579.008 772.169.504 45.472 0 62.831 14.603 62.831 63.996 1.196 191.313.303 288.704.303 288.155 0 52.046-36.343 57.824-47.803 57.845-182.148 0-604.852.5-787 .5-46.879 0-54.241-37.784-54.241-48.804-.005-8.424-1.989-38.306 1.741-44.696 14.159-3.054 24.555-3.077 29.5-15 3.288-11.586 2.408-186.676-1-196-6.291-11.09-16.899-7.998-29-13.5-3.882-7.429-1.805-26.498-1.5-36.5 1.257-41.18 22.326-55.055 54-56.5z"/></svg>